<svg height="400" width="950" xmlns="http://www.w3.org/2000/svg">
<style>
text{font-family:sans-serif}
</style>
<g class="layer relationships"><g class="relationship"><path fill="#4356C0" stroke="none" d="M 0 1.5 L 2.1770532878450695 1.5 L 2.1770532878450695 -1.5 L 0 -1.5 Z M 21.67705328784507 1.5 L 23.85410657569014 1.5 L 23.85410657569014 4.5 L 32.85410657569014 0 L 23.85410657569014 -4.5 L 23.85410657569014 -1.5 L 21.67705328784507 -1.5 Z" transform="translate(743.9568534741743 268.97823688662515) rotate(-131.8537212265414)"/><text text-anchor="middle" font-size="9px" fill="#000000" x="735.9987520569831" y="263.5943626211486" transform="rotate(48.14627877345859 735.9987520569831 260.0943626211486)">J…</text><rect class="overlay" fill="yellow" x="0" y="-10" height="20" opacity="0" width="32.85410657569014" transform="translate(743.9568534741743 268.97823688662515) rotate(-131.8537212265414)"/></g><g class="relationship"><path fill="#4356C0" stroke="none" d="M 0 1.5 L 2.9420212492149105 1.5 L 2.9420212492149105 -1.5 L 0 -1.5 Z M 34.94446265546491 1.5 L 37.88648390467982 1.5 L 37.88648390467982 4.5 L 46.88648390467982 0 L 37.88648390467982 -4.5 L 37.88648390467982 -1.5 L 34.94446265546491 -1.5 Z" transform="translate(692.2595942886243 294.44663071500133) rotate(-75.77914172798437)"/><text text-anchor="middle" font-size="9px" fill="#000000" x="696.9131966353197" y="279.58388579863" transform="rotate(-75.77914172798437 696.9131966353197 276.08388579863)">JUE…</text><rect class="overlay" fill="yellow" x="0" y="-10" height="20" opacity="0" width="46.88648390467982" transform="translate(692.2595942886243 294.44663071500133) rotate(-75.77914172798437)"/></g><g class="relationship"><path fill="#4356C0" stroke="none" d="M 0 1.5 L 1.7213892269477071 1.5 L 1.7213892269477071 -1.5 L 0 -1.5 Z M 51.73261969569771 1.5 L 53.454008922645414 1.5 L 53.454008922645414 4.5 L 62.454008922645414 0 L 53.454008922645414 -4.5 L 53.454008922645414 -1.5 L 51.73261969569771 -1.5 Z" transform="translate(533.262430474322 354.41799341660874) rotate(-76.07604734634818)"/><text text-anchor="middle" font-size="9px" fill="#000000" x="539.6938519781654" y="331.97633608876123" transform="rotate(-76.07604734634818 539.6938519781654 328.47633608876123)">JUEGA_…</text><rect class="overlay" fill="yellow" x="0" y="-10" height="20" opacity="0" width="62.454008922645414" transform="translate(533.262430474322 354.41799341660874) rotate(-76.07604734634818)"/></g><g class="relationship"><path fill="#4356C0" stroke="none" d="M 0 1.5 L 0.6278222868543892 1.5 L 0.6278222868543892 -1.5 L 0 -1.5 Z M 45.63368166185439 1.5 L 46.26150394870878 1.5 L 46.26150394870878 4.5 L 55.26150394870878 0 L 46.26150394870878 -4.5 L 46.26150394870878 -1.5 L 45.63368166185439 -1.5 Z" transform="translate(580.5009346769239 344.4844833999365) rotate(-111.34776439252789)"/><text text-anchor="middle" font-size="9px" fill="#000000" x="572.080697813593" y="326.44077670715717" transform="rotate(68.65223560747211 572.080697813593 322.94077670715717)">JUEGA…</text><rect class="overlay" fill="yellow" x="0" y="-10" height="20" opacity="0" width="55.26150394870878" transform="translate(580.5009346769239 344.4844833999365) rotate(-111.34776439252789)"/></g><g class="relationship"><path fill="#4356C0" stroke="none" d="M 0 1.5 L 2.8348685282222448 1.5 L 2.8348685282222448 -1.5 L 0 -1.5 Z M 51.343169309472245 1.5 L 54.17803783769449 1.5 L 54.17803783769449 4.5 L 63.17803783769449 0 L 54.17803783769449 -4.5 L 54.17803783769449 -1.5 L 51.343169309472245 -1.5 Z" transform="translate(624.3661459097257 46.81798254080452) rotate(111.70484168454512)"/><text text-anchor="middle" font-size="9px" fill="#000000" x="614.3479421535465" y="75.48642586742567" transform="rotate(291.7048416845451 614.3479421535465 71.98642586742567)">JUGO_EN</text><rect class="overlay" fill="yellow" x="0" y="-10" height="20" opacity="0" width="63.17803783769449" transform="translate(624.3661459097257 46.81798254080452) rotate(111.70484168454512)"/></g><g class="relationship"><path fill="#4356C0" stroke="none" d="M 0 1.5 L 4.170579573255438 1.5 L 4.170579573255438 -1.5 L 0 -1.5 Z M 4.170579573255438 1.5 L 8.341159146510876 1.5 L 8.341159146510876 4.5 L 17.341159146510876 0 L 8.341159146510876 -4.5 L 8.341159146510876 -1.5 L 4.170579573255438 -1.5 Z" transform="translate(588.4136411637811 87.12024650266687) rotate(82.00886367095296)"/><text text-anchor="middle" font-size="9px" fill="#000000" x="588.9934347381213" y="94.75032802583435" transform="rotate(82.00886367095296 588.9934347381213 91.25032802583435)"/><rect class="overlay" fill="yellow" x="0" y="-10" height="20" opacity="0" width="17.341159146510876" transform="translate(588.4136411637811 87.12024650266687) rotate(82.00886367095296)"/></g><g class="relationship"><path fill="#4356C0" stroke="none" d="M 0 1.5 L 3.0972755394046203 1.5 L 3.0972755394046203 -1.5 L 0 -1.5 Z M 22.59727553940462 1.5 L 25.69455107880924 1.5 L 25.69455107880924 4.5 L 34.69455107880924 0 L 25.69455107880924 -4.5 L 25.69455107880924 -1.5 L 22.59727553940462 -1.5 Z" transform="translate(334.91419106694684 48.367243814927335) rotate(121.93800538910786)"/><text text-anchor="middle" font-size="9px" fill="#000000" x="328.11796486482245" y="62.769711342736926" transform="rotate(301.93800538910784 328.11796486482245 59.269711342736926)">J…</text><rect class="overlay" fill="yellow" x="0" y="-10" height="20" opacity="0" width="34.69455107880924" transform="translate(334.91419106694684 48.367243814927335) rotate(121.93800538910786)"/></g><g class="relationship"><path fill="#4356C0" stroke="none" d="M 0 1.5 L 6.299546147956249 1.5 L 6.299546147956249 -1.5 L 0 -1.5 Z M 54.80784692920625 1.5 L 61.1073930771625 1.5 L 61.1073930771625 4.5 L 70.1073930771625 0 L 61.1073930771625 -4.5 L 61.1073930771625 -1.5 L 54.80784692920625 -1.5 Z" transform="translate(345.9969616758309 51.38850448976668) rotate(88.55959436807987)"/><text text-anchor="middle" font-size="9px" fill="#000000" x="346.7649952259942" y="85.43254640693172" transform="rotate(88.55959436807987 346.7649952259942 81.93254640693172)">JUGO_EN</text><rect class="overlay" fill="yellow" x="0" y="-10" height="20" opacity="0" width="70.1073930771625" transform="translate(345.9969616758309 51.38850448976668) rotate(88.55959436807987)"/></g><g class="relationship"><path fill="#4356C0" stroke="none" d="M 0 1.5 L 42.34331157696916 1.5 L 42.34331157696916 -1.5 L 0 -1.5 Z M 95.85698345196916 1.5 L 138.2002950289383 1.5 L 138.2002950289383 4.5 L 147.2002950289383 0 L 138.2002950289383 -4.5 L 138.2002950289383 -1.5 L 95.85698345196916 -1.5 Z" transform="translate(496.0519708312316 63.27493661344118) rotate(152.11764685119857)"/><text text-anchor="middle" font-size="9px" fill="#000000" x="434.9736795831012" y="99.09014548991229" transform="rotate(332.1176468511986 434.9736795831012 95.59014548991229)">JUEGA_EN</text><rect class="overlay" fill="yellow" x="0" y="-10" height="20" opacity="0" width="147.2002950289383" transform="translate(496.0519708312316 63.27493661344118) rotate(152.11764685119857)"/></g><g class="relationship"><path fill="#4356C0" stroke="none" d="M 0 1.5 L 57.110637189666335 1.5 L 57.110637189666335 -1.5 L 0 -1.5 Z M 105.61893797091633 1.5 L 162.72957516058267 1.5 L 162.72957516058267 4.5 L 171.72957516058267 0 L 162.72957516058267 -4.5 L 162.72957516058267 -1.5 L 105.61893797091633 -1.5 Z" transform="translate(494.10612659767315 57.781463009833274) rotate(168.87302642251103)"/><text text-anchor="middle" font-size="9px" fill="#000000" x="414.27084078748123" y="76.9835583346904" transform="rotate(348.87302642251103 414.27084078748123 73.4835583346904)">JUGO_EN</text><rect class="overlay" fill="yellow" x="0" y="-10" height="20" opacity="0" width="171.72957516058267" transform="translate(494.10612659767315 57.781463009833274) rotate(168.87302642251103)"/></g><g class="relationship"><path fill="#4356C0" stroke="none" d="M 0 1.5 L 18.65279268798018 1.5 L 18.65279268798018 -1.5 L 0 -1.5 Z M 72.16646456298018 1.5 L 90.81925725096036 1.5 L 90.81925725096036 4.5 L 99.81925725096036 0 L 90.81925725096036 -4.5 L 90.81925725096036 -1.5 L 72.16646456298018 -1.5 Z" transform="translate(450.4032479484309 204.10783702697913) rotate(-148.48035634980926)"/><text text-anchor="middle" font-size="9px" fill="#000000" x="411.69331154205105" y="183.86809828962026" transform="rotate(31.519643650190744 411.69331154205105 180.36809828962026)">JUEGA_EN</text><rect class="overlay" fill="yellow" x="0" y="-10" height="20" opacity="0" width="99.81925725096036" transform="translate(450.4032479484309 204.10783702697913) rotate(-148.48035634980926)"/></g><g class="relationship"><path fill="#4356C0" stroke="none" d="M 0 1.5 L 3.483136345024789 1.5 L 3.483136345024789 -1.5 L 0 -1.5 Z M 51.99143712627479 1.5 L 55.47457347129958 1.5 L 55.47457347129958 4.5 L 64.47457347129958 0 L 55.47457347129958 -4.5 L 55.47457347129958 -1.5 L 51.99143712627479 -1.5 Z" transform="translate(483.8490287418182 226.0158495951826) rotate(34.93241418152173)"/><text text-anchor="middle" font-size="9px" fill="#000000" x="506.5888347759032" y="245.39849096832467" transform="rotate(34.93241418152173 506.5888347759032 241.89849096832467)">JUGO_EN</text><rect class="overlay" fill="yellow" x="0" y="-10" height="20" opacity="0" width="64.47457347129958" transform="translate(483.8490287418182 226.0158495951826) rotate(34.93241418152173)"/></g><g class="relationship"><path fill="#4356C0" stroke="none" d="M 0 1.5 L 0.028032894176440948 1.5 L 0.028032894176440948 -1.5 L 0 -1.5 Z M 48.53633367542644 1.5 L 48.56436656960288 1.5 L 48.56436656960288 4.5 L 57.56436656960288 0 L 48.56436656960288 -4.5 L 48.56436656960288 -1.5 L 48.53633367542644 -1.5 Z" transform="translate(475.61583221460285 270.941769751846) rotate(2.5456476424410024)"/><text text-anchor="middle" font-size="9px" fill="#000000" x="499.87405269682756" y="275.52027061529634" transform="rotate(2.5456476424410024 499.87405269682756 272.02027061529634)">JUGO_EN</text><rect class="overlay" fill="yellow" x="0" y="-10" height="20" opacity="0" width="57.56436656960288" transform="translate(475.61583221460285 270.941769751846) rotate(2.5456476424410024)"/></g><g class="relationship"><path fill="#4356C0" stroke="none" d="M 0 1.5 L 12.749087570502084 1.5 L 12.749087570502084 -1.5 L 0 -1.5 Z M 66.26275944550208 1.5 L 79.01184701600417 1.5 L 79.01184701600417 4.5 L 88.01184701600417 0 L 79.01184701600417 -4.5 L 79.01184701600417 -1.5 L 66.26275944550208 -1.5 Z" transform="translate(440.0159463104635 257.5623713043091) rotate(-141.35049585119884)"/><text text-anchor="middle" font-size="9px" fill="#000000" x="409.16256504060834" y="236.38876483024336" transform="rotate(38.64950414880116 409.16256504060834 232.88876483024336)">JUEGA_EN</text><rect class="overlay" fill="yellow" x="0" y="-10" height="20" opacity="0" width="88.01184701600417" transform="translate(440.0159463104635 257.5623713043091) rotate(-141.35049585119884)"/></g><g class="relationship"><path fill="#4356C0" stroke="none" d="M 0 1.5 L 5.533362883858086 1.5 L 5.533362883858086 -1.5 L 0 -1.5 Z M 5.533362883858086 1.5 L 11.066725767716171 1.5 L 11.066725767716171 4.5 L 20.06672576771617 0 L 11.066725767716171 -4.5 L 11.066725767716171 -1.5 L 5.533362883858086 -1.5 Z" transform="translate(287.70766844608954 130.43942852583908) rotate(-62.866521548641934)"/><text text-anchor="middle" font-size="9px" fill="#000000" x="290.2312415287072" y="129.0150317403286" transform="rotate(-62.866521548641934 290.2312415287072 125.51503174032861)"/><rect class="overlay" fill="yellow" x="0" y="-10" height="20" opacity="0" width="20.06672576771617" transform="translate(287.70766844608954 130.43942852583908) rotate(-62.866521548641934)"/></g><g class="relationship"><path fill="#4356C0" stroke="none" d="M 0 1.5 L 2.8551929269716467 1.5 L 2.8551929269716467 -1.5 L 0 -1.5 Z M 35.85519292697165 1.5 L 38.71038585394329 1.5 L 38.71038585394329 4.5 L 47.71038585394329 0 L 38.71038585394329 -4.5 L 38.71038585394329 -1.5 L 35.85519292697165 -1.5 Z" transform="translate(296.1611088131329 157.78448332558906) rotate(28.5096173196507)"/><text text-anchor="middle" font-size="9px" fill="#000000" x="313.1692331220068" y="170.52283819721993" transform="rotate(28.5096173196507 313.1692331220068 167.02283819721993)">JUG…</text><rect class="overlay" fill="yellow" x="0" y="-10" height="20" opacity="0" width="47.71038585394329" transform="translate(296.1611088131329 157.78448332558906) rotate(28.5096173196507)"/></g><g class="relationship"><path fill="#4356C0" stroke="none" d="M 0 1.5 L 21.924460759005214 1.5 L 21.924460759005214 -1.5 L 0 -1.5 Z M 70.43276154025521 1.5 L 92.35722229926043 1.5 L 92.35722229926043 4.5 L 101.35722229926043 0 L 92.35722229926043 -4.5 L 92.35722229926043 -1.5 L 70.43276154025521 -1.5 Z" transform="translate(235.83022645449722 170.91386767102236) rotate(9.097888238635091)"/><text text-anchor="middle" font-size="9px" fill="#000000" x="281.4278938364643" y="181.71570696206712" transform="rotate(9.097888238635091 281.4278938364643 178.21570696206712)">JUGO_EN</text><rect class="overlay" fill="yellow" x="0" y="-10" height="20" opacity="0" width="101.35722229926043" transform="translate(235.83022645449722 170.91386767102236) rotate(9.097888238635091)"/></g><g class="relationship"><path fill="#4356C0" stroke="none" d="M 0 1.5 L 22.419322658997274 1.5 L 22.419322658997274 -1.5 L 0 -1.5 Z M 75.93299453399727 1.5 L 98.35231719299455 1.5 L 98.35231719299455 4.5 L 107.35231719299455 0 L 98.35231719299455 -4.5 L 98.35231719299455 -1.5 L 75.93299453399727 -1.5 Z" transform="translate(196.17926369359748 165.77970773144537) rotate(-174.3422295085978)"/><text text-anchor="middle" font-size="9px" fill="#000000" x="147.24266662077972" y="164.43161106981228" transform="rotate(5.657770491402204 147.24266662077972 160.93161106981228)">JUEGA_EN</text><rect class="overlay" fill="yellow" x="0" y="-10" height="20" opacity="0" width="107.35231719299455" transform="translate(196.17926369359748 165.77970773144537) rotate(-174.3422295085978)"/></g><g class="relationship"><path fill="#4356C0" stroke="none" d="M 0 1.5 L 16.065834591832797 1.5 L 16.065834591832797 -1.5 L 0 -1.5 Z M 69.5795064668328 1.5 L 85.6453410586656 1.5 L 85.6453410586656 4.5 L 94.6453410586656 0 L 85.6453410586656 -4.5 L 85.6453410586656 -1.5 L 69.5795064668328 -1.5 Z" transform="translate(455.4594003925062 133.67808261260367) rotate(150.51669362148897)"/><text text-anchor="middle" font-size="9px" fill="#000000" x="418.1823029154533" y="158.2541143773853" transform="rotate(330.51669362148897 418.1823029154533 154.7541143773853)">JUEGA_EN</text><rect class="overlay" fill="yellow" x="0" y="-10" height="20" opacity="0" width="94.6453410586656" transform="translate(455.4594003925062 133.67808261260367) rotate(150.51669362148897)"/></g><g class="relationship"><path fill="#4356C0" stroke="none" d="M 0 1.5 L 11.613705328224292 1.5 L 11.613705328224292 -1.5 L 0 -1.5 Z M 60.12200610947429 1.5 L 71.73571143769858 1.5 L 71.73571143769858 4.5 L 80.73571143769858 0 L 71.73571143769858 -4.5 L 71.73571143769858 -1.5 L 60.12200610947429 -1.5 Z" transform="translate(492.8693351528504 123.87843597054388) rotate(0.1253415753551805)"/><text text-anchor="middle" font-size="9px" fill="#000000" x="528.7371050454219" y="127.45690126053123" transform="rotate(0.1253415753551805 528.7371050454219 123.95690126053123)">JUGO_EN</text><rect class="overlay" fill="yellow" x="0" y="-10" height="20" opacity="0" width="80.73571143769858" transform="translate(492.8693351528504 123.87843597054388) rotate(0.1253415753551805)"/></g><g class="relationship"><path fill="#4356C0" stroke="none" d="M 0 1.5 L 14.296444979261707 1.5 L 14.296444979261707 -1.5 L 0 -1.5 Z M 67.81011685426171 1.5 L 82.10656183352341 1.5 L 82.10656183352341 4.5 L 91.10656183352341 0 L 82.10656183352341 -4.5 L 82.10656183352341 -1.5 L 67.81011685426171 -1.5 Z" transform="translate(431.4036153255748 296.8251096135824) rotate(-90.00708554959495)"/><text text-anchor="middle" font-size="9px" fill="#000000" x="431.3985384235813" y="259.2718290107412" transform="rotate(89.99291445040505 431.3985384235813 255.77182901074121)">JUEGA_EN</text><rect class="overlay" fill="yellow" x="0" y="-10" height="20" opacity="0" width="91.10656183352341" transform="translate(431.4036153255748 296.8251096135824) rotate(-90.00708554959495)"/></g><g class="relationship"><path fill="#4356C0" stroke="none" d="M 0 1.5 L 2.3803963056879525 1.5 L 2.3803963056879525 -1.5 L 0 -1.5 Z M 48.72658771193795 1.5 L 51.106984017625905 1.5 L 51.106984017625905 4.5 L 60.106984017625905 0 L 51.106984017625905 -4.5 L 51.106984017625905 -1.5 L 48.72658771193795 -1.5 Z" transform="translate(396.4047980054458 257.7822236809863) rotate(-64.104608867404)"/><text text-anchor="middle" font-size="9px" fill="#000000" x="407.56475991825954" y="238.29448338427565" transform="rotate(-64.104608867404 407.56475991825954 234.79448338427565)">ESTA_EN</text><rect class="overlay" fill="yellow" x="0" y="-10" height="20" opacity="0" width="60.106984017625905" transform="translate(396.4047980054458 257.7822236809863) rotate(-64.104608867404)"/></g><g class="relationship"><path fill="#4356C0" stroke="none" d="M 0 1.5 L 0.9151023664902027 1.5 L 0.9151023664902027 -1.5 L 0 -1.5 Z M 33.4185203352402 1.5 L 34.333622701730405 1.5 L 34.333622701730405 4.5 L 43.333622701730405 0 L 34.333622701730405 -4.5 L 34.333622701730405 -1.5 L 33.4185203352402 -1.5 Z" transform="translate(713.2765789236003 210.1426146100902) rotate(-76.74522130042565)"/><text text-anchor="middle" font-size="9px" fill="#000000" x="717.2126124487862" y="196.93312473024028" transform="rotate(-76.74522130042565 717.2126124487862 193.43312473024028)">EST…</text><rect class="overlay" fill="yellow" x="0" y="-10" height="20" opacity="0" width="43.333622701730405" transform="translate(713.2765789236003 210.1426146100902) rotate(-76.74522130042565)"/></g><g class="relationship"><path fill="#4356C0" stroke="none" d="M 0 1.5 L 8.869738737263063 1.5 L 8.869738737263063 -1.5 L 0 -1.5 Z M 8.869738737263063 1.5 L 17.739477474526126 1.5 L 17.739477474526126 4.5 L 26.739477474526126 0 L 17.739477474526126 -4.5 L 17.739477474526126 -1.5 L 8.869738737263063 -1.5 Z" transform="translate(576.5224500899944 134.50040033928218) rotate(148.6624063676067)"/><text text-anchor="middle" font-size="9px" fill="#000000" x="568.9466485946509" y="142.61337085408667" transform="rotate(328.6624063676067 568.9466485946509 139.11337085408667)"/><rect class="overlay" fill="yellow" x="0" y="-10" height="20" opacity="0" width="26.739477474526126" transform="translate(576.5224500899944 134.50040033928218) rotate(148.6624063676067)"/></g><g class="relationship"><path fill="#4356C0" stroke="none" d="M 0 1.5 L 10.702060691720632 1.5 L 10.702060691720632 -1.5 L 0 -1.5 Z M 57.04825209797063 1.5 L 67.75031278969126 1.5 L 67.75031278969126 4.5 L 76.75031278969126 0 L 67.75031278969126 -4.5 L 67.75031278969126 -1.5 L 57.04825209797063 -1.5 Z" transform="translate(550.2767289232147 254.5876113603666) rotate(-98.12575741326873)"/><text text-anchor="middle" font-size="9px" fill="#000000" x="545.488601430903" y="224.55255424258877" transform="rotate(81.87424258673127 545.488601430903 221.05255424258877)">ESTA_EN</text><rect class="overlay" fill="yellow" x="0" y="-10" height="20" opacity="0" width="76.75031278969126" transform="translate(550.2767289232147 254.5876113603666) rotate(-98.12575741326873)"/></g><g class="relationship"><path fill="#4356C0" stroke="none" d="M 0 1.5 L 2.3730036439670457 1.5 L 2.3730036439670457 -1.5 L 0 -1.5 Z M 48.719195050217046 1.5 L 51.09219869418409 1.5 L 51.09219869418409 4.5 L 60.09219869418409 0 L 51.09219869418409 -4.5 L 51.09219869418409 -1.5 L 48.719195050217046 -1.5 Z" transform="translate(600.044890717076 143.0335719747281) rotate(71.21582266350151)"/><text text-anchor="middle" font-size="9px" fill="#000000" x="608.270843496992" y="170.7190406018622" transform="rotate(71.21582266350151 608.270843496992 167.2190406018622)">ESTA_EN</text><rect class="overlay" fill="yellow" x="0" y="-10" height="20" opacity="0" width="60.09219869418409" transform="translate(600.044890717076 143.0335719747281) rotate(71.21582266350151)"/></g><g class="relationship"><path fill="#4356C0" stroke="none" d="M 0 1.5 L 2.333060053515709 1.5 L 2.333060053515709 -1.5 L 0 -1.5 Z M 40.17143895976571 1.5 L 42.50449901328142 1.5 L 42.50449901328142 4.5 L 51.50449901328142 0 L 42.50449901328142 -4.5 L 42.50449901328142 -1.5 L 40.17143895976571 -1.5 Z" transform="translate(569.0004172740297 262.25038551205773) rotate(-37.36003041876018)"/><text text-anchor="middle" font-size="9px" fill="#000000" x="585.8925155954041" y="252.85406342420913" transform="rotate(-37.36003041876018 585.8925155954041 249.35406342420913)">ESTA…</text><rect class="overlay" fill="yellow" x="0" y="-10" height="20" opacity="0" width="51.50449901328142" transform="translate(569.0004172740297 262.25038551205773) rotate(-37.36003041876018)"/></g><g class="relationship"><path fill="#4356C0" stroke="none" d="M 0 1.5 L 1.0235278982860905 1.5 L 1.0235278982860905 -1.5 L 0 -1.5 Z M 33.52694586703609 1.5 L 34.55047376532218 1.5 L 34.55047376532218 4.5 L 43.55047376532218 0 L 34.55047376532218 -4.5 L 34.55047376532218 -1.5 L 33.52694586703609 -1.5 Z" transform="translate(688.8571813554486 227.0365465746703) rotate(-172.60762973115774)"/><text text-anchor="middle" font-size="9px" fill="#000000" x="671.7255309811296" y="228.31385343252225" transform="rotate(7.392370268842257 671.7255309811296 224.81385343252225)">EST…</text><rect class="overlay" fill="yellow" x="0" y="-10" height="20" opacity="0" width="43.55047376532218" transform="translate(688.8571813554486 227.0365465746703) rotate(-172.60762973115774)"/></g><g class="relationship"><path fill="#4356C0" stroke="none" d="M 0 1.5 L 2.4929122310047234 1.5 L 2.4929122310047234 -1.5 L 0 -1.5 Z M 29.498771606004723 1.5 L 31.991683837009447 1.5 L 31.991683837009447 4.5 L 40.99168383700945 0 L 31.991683837009447 -4.5 L 31.991683837009447 -1.5 L 29.498771606004723 -1.5 Z" transform="translate(336.8979213572194 197.02817318339905) rotate(159.74158045389498)"/><text text-anchor="middle" font-size="9px" fill="#000000" x="321.8915747928204" y="206.06681213813718" transform="rotate(339.741580453895 321.8915747928204 202.56681213813718)">ES…</text><rect class="overlay" fill="yellow" x="0" y="-10" height="20" opacity="0" width="40.99168383700945" transform="translate(336.8979213572194 197.02817318339905) rotate(159.74158045389498)"/></g><g class="relationship"><path fill="#4356C0" stroke="none" d="M 0 1.5 L 29.895804348684777 1.5 L 29.895804348684777 -1.5 L 0 -1.5 Z M 76.24199575493478 1.5 L 106.13780010361955 1.5 L 106.13780010361955 4.5 L 115.13780010361955 0 L 106.13780010361955 -4.5 L 106.13780010361955 -1.5 L 76.24199575493478 -1.5 Z" transform="translate(411.8316862457843 189.8991281022368) rotate(167.9345463030317)"/><text text-anchor="middle" font-size="9px" fill="#000000" x="359.93510749840414" y="204.49206581169625" transform="rotate(347.9345463030317 359.93510749840414 200.99206581169625)">ESTA_EN</text><rect class="overlay" fill="yellow" x="0" y="-10" height="20" opacity="0" width="115.13780010361955" transform="translate(411.8316862457843 189.8991281022368) rotate(167.9345463030317)"/></g><g class="relationship"><path fill="#4356C0" stroke="none" d="M 0 1.5 L 62.340907923506535 1.5 L 62.340907923506535 -1.5 L 0 -1.5 Z M 108.68709932975653 1.5 L 171.02800725326307 1.5 L 171.02800725326307 4.5 L 180.02800725326307 0 L 171.02800725326307 -4.5 L 171.02800725326307 -1.5 L 108.68709932975653 -1.5 Z" transform="translate(88.55689310534206 159.12579001818716) rotate(17.161372074300214)"/><text text-anchor="middle" font-size="9px" fill="#000000" x="170.26360008600662" y="187.85788962625335" transform="rotate(17.161372074300214 170.26360008600662 184.35788962625335)">ESTA_EN</text><rect class="overlay" fill="yellow" x="0" y="-10" height="20" opacity="0" width="180.02800725326307" transform="translate(88.55689310534206 159.12579001818716) rotate(17.161372074300214)"/></g><g class="relationship"><path fill="#4356C0" stroke="none" d="M 0 1.5 L 70.1812514559889 1.5 L 70.1812514559889 -1.5 L 0 -1.5 Z M 116.5274428622389 1.5 L 186.7086943182278 1.5 L 186.7086943182278 4.5 L 195.7086943182278 0 L 186.7086943182278 -4.5 L 186.7086943182278 -1.5 L 116.5274428622389 -1.5 Z" transform="translate(293.68386509881225 110.55519799378547) rotate(127.94041953072815)"/><text text-anchor="middle" font-size="9px" fill="#000000" x="236.28571868932625" y="187.6791541647192" transform="rotate(307.94041953072815 236.28571868932625 184.1791541647192)">ESTA_EN</text><rect class="overlay" fill="yellow" x="0" y="-10" height="20" opacity="0" width="195.7086943182278" transform="translate(293.68386509881225 110.55519799378547) rotate(127.94041953072815)"/></g><g class="relationship"><path fill="#4356C0" stroke="none" d="M 0 1.5 L 68.97179014223559 1.5 L 68.97179014223559 -1.5 L 0 -1.5 Z M 115.31798154848559 1.5 L 184.28977169072118 1.5 L 184.28977169072118 4.5 L 193.28977169072118 0 L 184.28977169072118 -4.5 L 184.28977169072118 -1.5 L 115.31798154848559 -1.5 Z" transform="translate(332.2128810392129 153.40164279688736) rotate(143.36530486604576)"/><text text-anchor="middle" font-size="9px" fill="#000000" x="258.2706380375836" y="211.88550122227008" transform="rotate(323.3653048660458 258.2706380375836 208.38550122227008)">ESTA_EN</text><rect class="overlay" fill="yellow" x="0" y="-10" height="20" opacity="0" width="193.28977169072118" transform="translate(332.2128810392129 153.40164279688736) rotate(143.36530486604576)"/></g><g class="relationship"><path fill="#4356C0" stroke="none" d="M 0 1.5 L 0.5427222166075083 1.5 L 0.5427222166075083 -1.5 L 0 -1.5 Z M 43.38647221660751 1.5 L 43.92919443321502 1.5 L 43.92919443321502 4.5 L 52.92919443321502 0 L 43.92919443321502 -4.5 L 43.92919443321502 -1.5 L 43.38647221660751 -1.5 Z" transform="translate(174.47289282554974 295.5069859407945) rotate(47.87220321241058)"/><text text-anchor="middle" font-size="9px" fill="#000000" x="189.20644825391122" y="315.29704043202327" transform="rotate(47.87220321241058 189.20644825391122 311.79704043202327)">ESTA_…</text><rect class="overlay" fill="yellow" x="0" y="-10" height="20" opacity="0" width="52.92919443321502" transform="translate(174.47289282554974 295.5069859407945) rotate(47.87220321241058)"/></g><g class="relationship"><path fill="#4356C0" stroke="none" d="M 0 1.5 L 8.703286910287126 1.5 L 8.703286910287126 -1.5 L 0 -1.5 Z M 55.049478316537126 1.5 L 63.75276522682425 1.5 L 63.75276522682425 4.5 L 72.75276522682425 0 L 63.75276522682425 -4.5 L 63.75276522682425 -1.5 L 55.049478316537126 -1.5 Z" transform="translate(556.5319490399854 157.1429744065348) rotate(-4.77734526095968)"/><text text-anchor="middle" font-size="9px" fill="#000000" x="588.2975888782918" y="157.9881873755952" transform="rotate(-4.77734526095968 588.2975888782918 154.4881873755952)">ESTA_EN</text><rect class="overlay" fill="yellow" x="0" y="-10" height="20" opacity="0" width="72.75276522682425" transform="translate(556.5319490399854 157.1429744065348) rotate(-4.77734526095968)"/></g><g class="relationship"><path fill="#4356C0" stroke="none" d="M 0 1.5 L 1.41743222420277 1.5 L 1.41743222420277 -1.5 L 0 -1.5 Z M 28.42329159920277 1.5 L 29.84072382340554 1.5 L 29.84072382340554 4.5 L 38.84072382340554 0 L 29.84072382340554 -4.5 L 29.84072382340554 -1.5 L 28.42329159920277 -1.5 Z" transform="translate(707.7991792049916 148.73007468198816) rotate(179.3299568300143)"/><text text-anchor="middle" font-size="9px" fill="#000000" x="692.8798375388567" y="152.4045562722038" transform="rotate(359.32995683001434 692.8798375388567 148.9045562722038)">ES…</text><rect class="overlay" fill="yellow" x="0" y="-10" height="20" opacity="0" width="38.84072382340554" transform="translate(707.7991792049916 148.73007468198816) rotate(179.3299568300143)"/></g><g class="relationship"><path fill="#4356C0" stroke="none" d="M 0 1.5 L 1.5944378536366983 1.5 L 1.5944378536366983 -1.5 L 0 -1.5 Z M 22.5973675411367 1.5 L 24.191805394773397 1.5 L 24.191805394773397 4.5 L 33.1918053947734 0 L 24.191805394773397 -4.5 L 24.191805394773397 -1.5 L 22.5973675411367 -1.5 Z" transform="translate(632.1546324745258 199.8846381311586) rotate(-71.57967407498074)"/><text text-anchor="middle" font-size="9px" fill="#000000" x="635.9767639685" y="191.9084814178936" transform="rotate(-71.57967407498074 635.9767639685 188.4084814178936)">E…</text><rect class="overlay" fill="yellow" x="0" y="-10" height="20" opacity="0" width="33.1918053947734" transform="translate(632.1546324745258 199.8846381311586) rotate(-71.57967407498074)"/></g><g class="relationship"><path fill="#4356C0" stroke="none" d="M 0 1.5 L 1.204749682473114 1.5 L 1.204749682473114 -1.5 L 0 -1.5 Z M 47.550941088723114 1.5 L 48.75569077119623 1.5 L 48.75569077119623 4.5 L 57.75569077119623 0 L 48.75569077119623 -4.5 L 48.75569077119623 -1.5 L 47.550941088723114 -1.5 Z" transform="translate(284.1188873122855 237.64783795914852) rotate(77.17425597264099)"/><text text-anchor="middle" font-size="9px" fill="#000000" x="289.5304429936296" y="264.91744903614847" transform="rotate(77.17425597264099 289.5304429936296 261.41744903614847)">ESTA_EN</text><rect class="overlay" fill="yellow" x="0" y="-10" height="20" opacity="0" width="57.75569077119623" transform="translate(284.1188873122855 237.64783795914852) rotate(77.17425597264099)"/></g><g class="relationship"><path fill="#4356C0" stroke="none" d="M 0 1.5 L 1.378850201359512 1.5 L 1.378850201359512 -1.5 L 0 -1.5 Z M 33.88226817010951 1.5 L 35.261118371469024 1.5 L 35.261118371469024 4.5 L 44.261118371469024 0 L 35.261118371469024 -4.5 L 35.261118371469024 -1.5 L 33.88226817010951 -1.5 Z" transform="translate(325.97617932779417 95.20736732571393) rotate(1.218143043818107)"/><text text-anchor="middle" font-size="9px" fill="#000000" x="343.60275403907633" y="99.08217547567257" transform="rotate(1.218143043818107 343.60275403907633 95.58217547567257)">GANO</text><rect class="overlay" fill="yellow" x="0" y="-10" height="20" opacity="0" width="44.261118371469024" transform="translate(325.97617932779417 95.20736732571393) rotate(1.218143043818107)"/></g><g class="relationship"><path fill="#4356C0" stroke="none" d="M 0 1.5 L 6.225278648449034 1.5 L 6.225278648449034 -1.5 L 0 -1.5 Z M 6.225278648449034 1.5 L 12.450557296898069 1.5 L 12.450557296898069 4.5 L 21.45055729689807 0 L 12.450557296898069 -4.5 L 12.450557296898069 -1.5 L 6.225278648449034 -1.5 Z" transform="translate(361.91876430509546 126.85602587969568) rotate(-46.93419532273237)"/><text text-anchor="middle" font-size="9px" fill="#000000" x="366.16962035403094" y="125.80802443927548" transform="rotate(-46.93419532273237 366.16962035403094 122.30802443927548)"/><rect class="overlay" fill="yellow" x="0" y="-10" height="20" opacity="0" width="21.45055729689807" transform="translate(361.91876430509546 126.85602587969568) rotate(-46.93419532273237)"/></g><g class="relationship"><path fill="#4356C0" stroke="none" d="M 0 1.5 L 8.344041294188195 1.5 L 8.344041294188195 -1.5 L 0 -1.5 Z M 40.847459262938195 1.5 L 49.19150055712639 1.5 L 49.19150055712639 4.5 L 58.19150055712639 0 L 49.19150055712639 -4.5 L 49.19150055712639 -1.5 L 40.847459262938195 -1.5 Z" transform="translate(423.0048112885415 167.56116161621128) rotate(-114.7874475910758)"/><text text-anchor="middle" font-size="9px" fill="#000000" x="412.6929643834514" y="148.73143378151912" transform="rotate(65.2125524089242 412.6929643834514 145.23143378151912)">GANO</text><rect class="overlay" fill="yellow" x="0" y="-10" height="20" opacity="0" width="58.19150055712639" transform="translate(423.0048112885415 167.56116161621128) rotate(-114.7874475910758)"/></g><g class="relationship"><path fill="#4356C0" stroke="none" d="M 0 1.5 L 9.103875544141644 1.5 L 9.103875544141644 -1.5 L 0 -1.5 Z M 41.607293512891644 1.5 L 50.71116905703329 1.5 L 50.71116905703329 4.5 L 59.71116905703329 0 L 50.71116905703329 -4.5 L 50.71116905703329 -1.5 L 41.607293512891644 -1.5 Z" transform="translate(362.59316248350734 171.34297381471302) rotate(-69.71918475947834)"/><text text-anchor="middle" font-size="9px" fill="#000000" x="371.3819555590732" y="151.05930750655864" transform="rotate(-69.71918475947834 371.3819555590732 147.55930750655864)">GANO</text><rect class="overlay" fill="yellow" x="0" y="-10" height="20" opacity="0" width="59.71116905703329" transform="translate(362.59316248350734 171.34297381471302) rotate(-69.71918475947834)"/></g></g><g class="layer nodes"><g class="node" transform="translate(757.3014763665718,283.87525134790894)"><circle class="outline" cx="0" cy="0" r="20" fill="#F25A29" stroke="#DC4717" stroke-width="2px"/><text text-anchor="middle" font-weight="bold" stroke="#F25A29" stroke-width="0" y="0" font-size="12px" fill="#FFFFFF">Cervero</text><text text-anchor="middle" font-weight="bold" stroke="#F25A29" stroke-width="0" y="10" font-size="12px" fill="#FFFFFF">Otero</text></g><g class="node" transform="translate(687.3463884515204,313.83375036703444)"><circle class="outline" cx="0" cy="0" r="20" fill="#F25A29" stroke="#DC4717" stroke-width="2px"/><text text-anchor="middle" font-weight="bold" stroke="#F25A29" stroke-width="0" y="0" font-size="12px" fill="#FFFFFF">Berjón</text><text text-anchor="middle" font-weight="bold" stroke="#F25A29" stroke-width="0" y="10" font-size="12px" fill="#FFFFFF">Pérez</text></g><g class="node" transform="translate(528.4497538325004,373.8303127922337)"><circle class="outline" cx="0" cy="0" r="20" fill="#F25A29" stroke="#DC4717" stroke-width="2px"/><text text-anchor="middle" font-weight="bold" stroke="#F25A29" stroke-width="0" y="5" font-size="12px" fill="#FFFFFF">Zaza</text></g><g class="node" transform="translate(587.7814907718287,363.11224501932986)"><circle class="outline" cx="0" cy="0" r="20" fill="#F25A29" stroke="#DC4717" stroke-width="2px"/><text text-anchor="middle" font-weight="bold" stroke="#F25A29" stroke-width="0" y="0" font-size="12px" fill="#FFFFFF">Parejo</text><text text-anchor="middle" font-weight="bold" stroke="#F25A29" stroke-width="0" y="10" font-size="12px" fill="#FFFFFF">Muñóz</text></g><g class="node" transform="translate(631.7626513248473,28.23595607316442)"><circle class="outline" cx="0" cy="0" r="20" fill="#F25A29" stroke="#DC4717" stroke-width="2px"/><text text-anchor="middle" font-weight="bold" stroke="#F25A29" stroke-width="0" y="0" font-size="12px" fill="#FFFFFF">Falcao</text><text text-anchor="middle" font-weight="bold" stroke="#F25A29" stroke-width="0" y="10" font-size="12px" fill="#FFFFFF">García</text></g><g class="node" transform="translate(585.6332430720712,67.31445476258197)"><circle class="outline" cx="0" cy="0" r="20" fill="#F25A29" stroke="#DC4717" stroke-width="2px"/><text text-anchor="middle" font-weight="bold" stroke="#F25A29" stroke-width="0" y="0" font-size="12px" fill="#FFFFFF">Resurrección</text><text text-anchor="middle" font-weight="bold" stroke="#F25A29" stroke-width="0" y="10" font-size="12px" fill="#FFFFFF">Merodio</text></g><g class="node" transform="translate(431.40608864896336,316.8251094606492)"><circle class="outline" cx="0" cy="0" r="20" fill="#F25A29" stroke="#DC4717" stroke-width="2px"/><text text-anchor="middle" font-weight="bold" stroke="#F25A29" stroke-width="0" y="0" font-size="12px" fill="#FFFFFF">Firmino</text><text text-anchor="middle" font-weight="bold" stroke="#F25A29" stroke-width="0" y="10" font-size="12px" fill="#FFFFFF">Barbosa</text></g><g class="node" transform="translate(387.6702094733071,275.77408192782207)"><circle class="outline" cx="0" cy="0" r="20" fill="#F25A29" stroke="#DC4717" stroke-width="2px"/><text text-anchor="middle" font-weight="bold" stroke="#F25A29" stroke-width="0" y="5" font-size="12px" fill="#FFFFFF">Lovren</text></g><g class="node" transform="translate(216.08183374765756,167.7514341940237)"><circle class="outline" cx="0" cy="0" r="20" fill="#F25A29" stroke="#DC4717" stroke-width="2px"/><text text-anchor="middle" font-weight="bold" stroke="#F25A29" stroke-width="0" y="5" font-size="12px" fill="#FFFFFF">Rooney</text></g><g class="node" transform="translate(455.63556915694915,270.05346341563165)"><circle class="outline" cx="0" cy="0" r="20" fill="#F25A29" stroke="#DC4717" stroke-width="2px"/><text text-anchor="middle" font-weight="bold" stroke="#F25A29" stroke-width="0" y="5" font-size="12px" fill="#FFFFFF">Mata</text></g><g class="node" transform="translate(467.4524674986031,214.56365419877517)"><circle class="outline" cx="0" cy="0" r="20" fill="#F25A29" stroke="#DC4717" stroke-width="2px"/><text text-anchor="middle" font-weight="bold" stroke="#F25A29" stroke-width="0" y="0" font-size="12px" fill="#FFFFFF">Bernat</text><text text-anchor="middle" font-weight="bold" stroke="#F25A29" stroke-width="0" y="10" font-size="12px" fill="#FFFFFF">Velasco</text></g><g class="node" transform="translate(513.7301650016104,53.92178469152827)"><circle class="outline" cx="0" cy="0" r="20" fill="#F25A29" stroke="#DC4717" stroke-width="2px"/><text text-anchor="middle" font-weight="bold" stroke="#F25A29" stroke-width="0" y="5" font-size="12px" fill="#FFFFFF">Lewandowski</text></g><g class="node" transform="translate(345.49421821944196,31.39482426282852)"><circle class="outline" cx="0" cy="0" r="20" fill="#F25A29" stroke="#DC4717" stroke-width="2px"/><text text-anchor="middle" font-weight="bold" stroke="#F25A29" stroke-width="0" y="5" font-size="12px" fill="#FFFFFF">Gotze</text></g><g class="node" transform="translate(278.5863686666031,148.23835799737586)"><circle class="outline" cx="0" cy="0" r="20" fill="#F25A29" stroke="#DC4717" stroke-width="2px"/><text text-anchor="middle" font-weight="bold" stroke="#F25A29" stroke-width="0" y="5" font-size="12px" fill="#FFFFFF">Kagawa</text></g><g class="node" transform="translate(472.86938300978306,123.83468354184984)"><circle class="outline" cx="0" cy="0" r="20" fill="#F25A29" stroke="#DC4717" stroke-width="2px"/><text text-anchor="middle" font-weight="bold" stroke="#F25A29" stroke-width="0" y="0" font-size="12px" fill="#FFFFFF">De</text><text text-anchor="middle" font-weight="bold" stroke="#F25A29" stroke-width="0" y="10" font-size="12px" fill="#FFFFFF">Gea</text></g><g class="node" transform="translate(593.604805545441,124.09880757212494)"><circle class="outline" cx="0" cy="0" r="20" fill="#AD62CE" stroke="#9453B1" stroke-width="2px"/><text text-anchor="middle" font-weight="bold" stroke="#AD62CE" stroke-width="0" y="-5" font-size="12px" fill="#FFFFFF">Atlético</text><text text-anchor="middle" font-weight="bold" stroke="#AD62CE" stroke-width="0" y="5" font-size="12px" fill="#FFFFFF">de</text><text text-anchor="middle" font-weight="bold" stroke="#AD62CE" stroke-width="0" y="15" font-size="12px" fill="#FFFFFF">Madrid</text></g><g class="node" transform="translate(553.1036546126502,274.3868156662575)"><circle class="outline" cx="0" cy="0" r="20" fill="#AD62CE" stroke="#9453B1" stroke-width="2px"/><text text-anchor="middle" font-weight="bold" stroke="#AD62CE" stroke-width="0" y="5" font-size="12px" fill="#FFFFFF">Valencia</text></g><g class="node" transform="translate(708.6909474458155,229.60981738681056)"><circle class="outline" cx="0" cy="0" r="20" fill="#AD62CE" stroke="#9453B1" stroke-width="2px"/><text text-anchor="middle" font-weight="bold" stroke="#AD62CE" stroke-width="0" y="0" font-size="12px" fill="#FFFFFF">Real</text><text text-anchor="middle" font-weight="bold" stroke="#AD62CE" stroke-width="0" y="10" font-size="12px" fill="#FFFFFF">Oviedo</text></g><g class="node" transform="translate(431.38987520267426,185.71854862965316)"><circle class="outline" cx="0" cy="0" r="20" fill="#AD62CE" stroke="#9453B1" stroke-width="2px"/><text text-anchor="middle" font-weight="bold" stroke="#AD62CE" stroke-width="0" y="0" font-size="12px" fill="#FFFFFF">Liverpool</text><text text-anchor="middle" font-weight="bold" stroke="#AD62CE" stroke-width="0" y="10" font-size="12px" fill="#FFFFFF">FC</text></g><g class="node" transform="translate(355.6607306433489,190.10307479475995)"><circle class="outline" cx="0" cy="0" r="20" fill="#AD62CE" stroke="#9453B1" stroke-width="2px"/><text text-anchor="middle" font-weight="bold" stroke="#AD62CE" stroke-width="0" y="0" font-size="12px" fill="#FFFFFF">Manchester</text><text text-anchor="middle" font-weight="bold" stroke="#AD62CE" stroke-width="0" y="10" font-size="12px" fill="#FFFFFF">United</text></g><g class="node" transform="translate(69.44734296957489,153.22451103744064)"><circle class="outline" cx="0" cy="0" r="20" fill="#AD62CE" stroke="#9453B1" stroke-width="2px"/><text text-anchor="middle" font-weight="bold" stroke="#AD62CE" stroke-width="0" y="0" font-size="12px" fill="#FFFFFF">Everton</text><text text-anchor="middle" font-weight="bold" stroke="#AD62CE" stroke-width="0" y="10" font-size="12px" fill="#FFFFFF">FC</text></g><g class="node" transform="translate(348.26200678792145,141.4674246531571)"><circle class="outline" cx="0" cy="0" r="20" fill="#AD62CE" stroke="#9453B1" stroke-width="2px"/><text text-anchor="middle" font-weight="bold" stroke="#AD62CE" stroke-width="0" y="0" font-size="12px" fill="#FFFFFF">Bayern</text><text text-anchor="middle" font-weight="bold" stroke="#AD62CE" stroke-width="0" y="10" font-size="12px" fill="#FFFFFF">München</text></g><g class="node" transform="translate(305.9806992915802,94.7821872210898)"><circle class="outline" cx="0" cy="0" r="20" fill="#AD62CE" stroke="#9453B1" stroke-width="2px"/><text text-anchor="middle" font-weight="bold" stroke="#AD62CE" stroke-width="0" y="0" font-size="12px" fill="#FFFFFF">Borussia</text><text text-anchor="middle" font-weight="bold" stroke="#AD62CE" stroke-width="0" y="10" font-size="12px" fill="#FFFFFF">Dortmund</text></g><g class="node" transform="translate(536.60143168891,158.80865088126913)"><circle class="outline" cx="0" cy="0" r="20" fill="#30B6AF" stroke="#46A39E" stroke-width="2px"/><text text-anchor="middle" font-weight="bold" stroke="#30B6AF" stroke-width="0" y="0" font-size="12px" fill="#FFFFFF">LaLiga</text><text text-anchor="middle" font-weight="bold" stroke="#30B6AF" stroke-width="0" y="10" font-size="12px" fill="#FFFFFF">Santander</text></g><g class="node" transform="translate(727.7978116167601,148.49619082414583)"><circle class="outline" cx="0" cy="0" r="20" fill="#30B6AF" stroke="#46A39E" stroke-width="2px"/><text text-anchor="middle" font-weight="bold" stroke="#30B6AF" stroke-width="0" y="0" font-size="12px" fill="#FFFFFF">LaLiga</text><text text-anchor="middle" font-weight="bold" stroke="#30B6AF" stroke-width="0" y="10" font-size="12px" fill="#FFFFFF">1|2|3</text></g><g class="node" transform="translate(625.8349197757788,218.85991761277086)"><circle class="outline" cx="0" cy="0" r="20" fill="#30B6AF" stroke="#46A39E" stroke-width="2px"/><text text-anchor="middle" font-weight="bold" stroke="#30B6AF" stroke-width="0" y="-5" font-size="12px" fill="#FFFFFF">Copa</text><text text-anchor="middle" font-weight="bold" stroke="#30B6AF" stroke-width="0" y="5" font-size="12px" fill="#FFFFFF">del</text><text text-anchor="middle" font-weight="bold" stroke="#30B6AF" stroke-width="0" y="15" font-size="12px" fill="#FFFFFF">Rey</text></g><g class="node" transform="translate(161.05716270032678,280.6739759560616)"><circle class="outline" cx="0" cy="0" r="20" fill="#30B6AF" stroke="#46A39E" stroke-width="2px"/><text text-anchor="middle" font-weight="bold" stroke="#30B6AF" stroke-width="0" y="5" font-size="12px" fill="#FFFFFF">Bundesliga</text></g><g class="node" transform="translate(279.6791547635336,218.146843756402)"><circle class="outline" cx="0" cy="0" r="20" fill="#30B6AF" stroke="#46A39E" stroke-width="2px"/><text text-anchor="middle" font-weight="bold" stroke="#30B6AF" stroke-width="0" y="0" font-size="12px" fill="#FFFFFF">Premier</text><text text-anchor="middle" font-weight="bold" stroke="#30B6AF" stroke-width="0" y="10" font-size="12px" fill="#FFFFFF">League</text></g><g class="node" transform="translate(390.2227748028688,96.57349477733621)"><circle class="outline" cx="0" cy="0" r="20" fill="#30B6AF" stroke="#46A39E" stroke-width="2px"/><text text-anchor="middle" font-weight="bold" stroke="#30B6AF" stroke-width="0" y="0" font-size="12px" fill="#FFFFFF">Champions</text><text text-anchor="middle" font-weight="bold" stroke="#30B6AF" stroke-width="0" y="10" font-size="12px" fill="#FFFFFF">League</text></g><g class="node" transform="translate(648.9624788756574,149.41816945629083)"><circle class="outline" cx="0" cy="0" r="20" fill="#FCC940" stroke="#F3BA25" stroke-width="2px"/><text text-anchor="middle" font-weight="bold" stroke="#FCC940" stroke-width="0" y="5" font-size="12px" fill="#000000">España</text></g><g class="node" transform="translate(223.39281236384596,349.5949594011147)"><circle class="outline" cx="0" cy="0" r="20" fill="#FCC940" stroke="#F3BA25" stroke-width="2px"/><text text-anchor="middle" font-weight="bold" stroke="#FCC940" stroke-width="0" y="5" font-size="12px" fill="#000000">Alemania</text></g><g class="node" transform="translate(301.37961087066395,313.4635017071309)"><circle class="outline" cx="0" cy="0" r="20" fill="#FCC940" stroke="#F3BA25" stroke-width="2px"/><text text-anchor="middle" font-weight="bold" stroke="#FCC940" stroke-width="0" y="5" font-size="12px" fill="#000000">Inglaterra</text></g></g></svg>